<?xml version="1.0" encoding="utf-8"?>
<!-- Generator: Adobe Illustrator 20.1.0, SVG Export Plug-In . SVG Version: 6.00 Build 0)  -->
<svg version="1.1" xmlns="http://www.w3.org/2000/svg" xmlns:xlink="http://www.w3.org/1999/xlink" x="0px" y="0px"
	 viewBox="0 0 723.7 354.3" style="enable-background:new 0 0 723.7 354.3;" xml:space="preserve">
<style type="text/css">
	.st0{fill:#002C42;}
	.st1{fill:#FFFFFF;}
	.st2{fill:#E30613;}
	.st3{fill:#004F9F;}
</style>
<g id="Suzuki">
</g>
<g id="Claim">
	<rect x="369.3" class="st0" width="354.3" height="354.3"/>
	<g>
		<path class="st1" d="M474.1,143.5l-4.2,39.6h-10.2l-2.6-32.7l-2.7,32.7h-10l-4.2-39.6h7.9l2,32.5l2.7-32.5h9.2l2.6,32.3l2.4-32.3
			H474.1z"/>
		<path class="st1" d="M489.9,183.1l-1.5-2.8c-1.3,1.9-3.3,3.2-6.3,3.2c-4,0-6.5-2.4-6.5-9.1c0-5.4,1.8-9.6,8.4-10.3l3.2-0.3v-2.2
			c0-2.9-0.4-3.8-1.5-3.8c-1.1,0-1.5,1.4-1.6,3.6l-7.4-1.1c0.7-3.2,2.8-7.8,9.6-7.8c6.3,0,8.6,3.2,8.6,10.4v20.1H489.9z
			 M487.1,177.6v-9.3l-1.4,0.2c-1.7,0.2-2.4,1.8-2.4,5c0,3.8,0.7,4.7,1.9,4.7C485.8,178,486.4,177.9,487.1,177.6z"/>
		<path class="st1" d="M512.2,183.9c-1.3,5.9-4.1,8.2-8.5,8.2c-1.5,0-2.8-0.2-3.9-0.6V186c0.9,0.3,1.9,0.4,2.7,0.4
			c1.5,0,2.5-0.8,2.9-3.4h-2.5l-6.2-29.7h8.4l2.5,23.5l3.5-23.5h7.6L512.2,183.9z"/>
		<path class="st1" d="M542.4,152.5c5.9,0,10.1,3.4,10.1,15.7c0,12.3-4.2,15.4-10.1,15.4c-5.9,0-10.2-3.2-10.2-15.4
			C532.2,156,536.5,152.5,542.4,152.5z M542.5,178.3c1.7,0,2.2-1.6,2.2-10.1c0-8.5-0.6-10.3-2.3-10.3c-1.6,0-2.3,1.9-2.3,10.3
			C540.1,176.6,540.8,178.3,542.5,178.3z"/>
		<path class="st1" d="M570,148.5c-1.1-0.3-2.3-0.6-3.1-0.6c-1.9,0-2.5,0.6-2.5,2.9v2.5h4.5v5.5h-4.5v24.2h-7.7v-24.2h-2.8v-5.5h2.8
			v-2.2c0-6.9,3.1-9.1,8-9.1c2.5,0,4.2,0.4,5.3,0.8V148.5z"/>
		<path class="st1" d="M591.1,143.5v33.3H602v6.3h-19.1v-39.6H591.1z"/>
		<path class="st1" d="M603.7,149.5v-6.9h8.4v6.9H603.7z M604,183.1v-29.7h7.7v29.7H604z"/>
		<path class="st1" d="M629.8,148.5c-1.1-0.3-2.3-0.6-3.1-0.6c-1.9,0-2.5,0.6-2.5,2.9v2.5h4.5v5.5h-4.5v24.2h-7.7v-24.2h-2.8v-5.5
			h2.8v-2.2c0-6.9,3.1-9.1,8-9.1c2.5,0,4.2,0.4,5.3,0.8V148.5z"/>
		<path class="st1" d="M641.2,174.4l7,1.1c-0.4,3.3-2.8,8.1-9.1,8.1c-6.7,0-9.7-4.7-9.7-15.4c0-11.6,3-15.7,9.6-15.7
			c8.8,0,9.2,6.7,9.2,17.9h-11.1c0.1,6.7,0.7,7.6,2.1,7.6C640.5,178,641,176.7,641.2,174.4z M637.3,165.4h4c-0.1-6.8-0.6-7.9-2-7.9
			C637.9,157.5,637.3,158.5,637.3,165.4z"/>
		<path class="st1" d="M651.6,183.1v-7.7h8.2v7.7H651.6z M652.6,169.9l-0.8-26.4h8l-0.8,26.4H652.6z"/>
	</g>
	<rect class="st1" width="359.6" height="354.3"/>
	<path class="st2" d="M245.9,163.7c0,0-11.9,3.4-34.8,17.5c-20.6,12.7-28.6,21.2-28.6,21.2L119,158.5c0,0,26.7-19.6,49-4.6
		l29.9,20.5l3.6-2.4L119,114.2c0,0,11.9-3.4,34.8-17.5c20.6-12.7,28.7-21.2,28.7-21.2l63.5,43.9c0,0-26.7,19.6-49,4.6L167,103.4
		l-3.6,2.4L245.9,163.7z"/>
	<g>
		<polygon class="st3" points="196.7,223.5 148.4,223.5 148.4,234.3 171.8,234.3 147.6,256.8 147.6,265.8 196.7,265.8 196.7,255 
			172.3,255 196.7,232.6 		"/>
		<path class="st3" d="M120,266.9c19.3,0,24.3-4.9,24.3-15.8v-27.6H129v25.9c0,4.4-3.7,6.9-9,6.9c-5.4,0-9-2.6-9-7v-25.8H95.7v27.6
			C95.7,262,100.7,266.9,120,266.9z"/>
		<path class="st3" d="M224.8,266.9c19.3,0,24.3-4.9,24.3-15.8v-27.6h-15.3v25.9c0,4.4-3.7,6.9-9,6.9c-5.5,0-9-2.6-9-7v-25.8h-15.3
			v27.6C200.5,262,205.5,266.9,224.8,266.9z"/>
		<rect x="309.5" y="223.5" class="st3" width="16" height="42.3"/>
		<polygon class="st3" points="307.1,223.5 286.1,223.5 269.1,238.1 269.1,223.5 253.1,223.5 253.1,265.8 269.1,265.8 269.1,250.8 
			284.9,265.8 306.3,265.8 283,244.1 		"/>
		<path class="st3" d="M58,235.2c0-3.3,4.8-3.4,6.5-3.4c1.6,0,5.3,0.7,7.8,4.8h18.1c0-8-7.6-14.3-25.8-14.3
			c-20.3,0-23.8,8.9-23.8,14c0,9.4,7.3,12.2,23.2,13.9c1.4,0.1,9.6-0.3,9.6,3.7c0,2.9-4.6,3.1-6.4,3.1c-1.7,0-4.9-0.3-7.5-5H39.9
			c0,9.3,6.3,14.7,27.4,14.7c19.4,0,24.6-7.9,24.6-14c0-5.9-4-11.8-20.6-13.9C64.3,238,58,237.6,58,235.2z"/>
	</g>
</g>
</svg>
